<svg xmlns="http://www.w3.org/2000/svg" shape-rendering="crispEdges" viewBox="0 -0.5 8 8" width="8" height="8"><metadata>Generated with pixel-perfect-svg https://github.com/kagof/pixel-perfect-svg</metadata><path stroke="#f5f7fa" d="M1,0h1M2,5h5M2,6h1M2,7h2"/><path stroke="#ebf0f6" d="M2,0h2M1,1h2"/><path stroke="#bac7db" d="M4,0h2M3,1h2"/><path stroke="#3a4568" d="M6,0h1M6,1h2M5,2h3M3,3h5M2,4h6M1,5h1M1,6h1M1,7h1"/><path stroke="#abaebe" d="M5,1h1"/><path stroke="#7a7799" d="M1,2h2M1,3h1"/><path stroke="#615f84" d="M3,2h2M2,3h1M1,4h1"/><path stroke="#282b4a" d="M7,5h1M7,6h1M7,7h1"/><path stroke="#222323" d="M3,6h1"/><path stroke="#000000" d="M4,6h2"/><path stroke="#cdd2da" d="M6,6h1M4,7h3"/></svg>
