<svg xmlns="http://www.w3.org/2000/svg" shape-rendering="crispEdges" viewBox="0 -0.5 8 8" width="8" height="8"><metadata>Generated with pixel-perfect-svg https://github.com/kagof/pixel-perfect-svg</metadata><path stroke="#bf7e63" d="M2,0h3M1,1h1M0,2h1M0,3h1"/><path stroke="#a96d58" d="M5,0h1M6,1h1M7,2h1M7,3h1M0,4h1M0,5h1M1,6h1M2,7h1"/><path stroke="#ebf0f6" d="M2,1h4M1,2h1M6,2h1M6,4h1M5,5h2M3,6h3"/><path stroke="#f5f7fa" d="M2,2h1M4,2h2M1,3h2M4,3h3M1,4h2M5,4h1M1,5h4M2,6h1"/><path stroke="#5b5c69" d="M3,2h1M3,3h1M3,4h2"/><path stroke="#945d4f" d="M7,4h1M7,5h1M6,6h1M3,7h3"/></svg>
