<svg xmlns="http://www.w3.org/2000/svg" shape-rendering="crispEdges" viewBox="0 -0.5 8 8" width="8" height="8"><metadata>Generated with pixel-perfect-svg https://github.com/kagof/pixel-perfect-svg</metadata><path stroke="#f5f7fa" d="M0,0h2M3,0h1M0,1h1"/><path stroke="#ebf0f6" d="M4,0h1M6,0h1M1,1h2M1,2h1M0,3h1"/><path stroke="#cdd2da" d="M7,0h1M3,1h4M2,2h1M1,3h1M0,4h2"/><path stroke="#bac7db" d="M7,1h1M5,2h2M6,3h1M1,5h1M0,6h1"/><path stroke="#a6aeba" d="M3,2h2M2,3h1M7,3h1M6,4h2M2,5h1M5,5h2M1,6h6M0,7h2M3,7h1"/><path stroke="#abaebe" d="M5,3h1"/><path stroke="#828b98" d="M2,4h1M5,4h1M3,5h2"/><path stroke="#848795" d="M7,6h1M4,7h1M6,7h2"/></svg>
