<svg xmlns="http://www.w3.org/2000/svg" shape-rendering="crispEdges" viewBox="0 -0.5 8 8" width="8" height="8"><metadata>Generated with pixel-perfect-svg https://github.com/kagof/pixel-perfect-svg</metadata><path stroke="#4097ea" d="M1,0h5M0,1h2M1,2h3M1,3h2M7,3h1M1,4h3M7,4h1M1,5h1M7,5h1M2,6h2M6,6h1M4,7h2"/><path stroke="#6dccff" d="M6,0h1M7,2h1"/><path stroke="#cdd2da" d="M2,1h2M3,3h1M2,5h2"/><path stroke="#f5f7fa" d="M4,1h2M5,2h1M4,3h2M5,4h1M4,5h2"/><path stroke="#55b1f1" d="M6,1h1M4,2h1M6,2h1M6,3h1M4,4h1M6,4h1M6,5h1M4,6h2"/><path stroke="#c6ecff" d="M7,1h1"/><path stroke="#1476c0" d="M0,2h1M0,3h1M0,4h1M2,7h2"/><path stroke="#105da2" d="M0,5h1M1,6h1"/></svg>
