<svg xmlns="http://www.w3.org/2000/svg" shape-rendering="crispEdges" viewBox="0 -0.5 8 8" width="8" height="8"><metadata>Generated with pixel-perfect-svg https://github.com/kagof/pixel-perfect-svg</metadata><path stroke="#fbeaa3" d="M1,0h1M0,1h1"/><path stroke="#e8cb82" d="M2,0h1M1,1h1M0,2h1"/><path stroke="#edb67c" d="M3,0h1M2,1h6M7,4h1M5,5h3M3,6h3M2,7h3"/><path stroke="#fff3d6" d="M1,2h5M1,3h1"/><path stroke="#eadbc9" d="M6,2h1M2,3h2"/><path stroke="#ffce7f" d="M7,2h1M4,3h4M2,4h5M1,5h4M0,6h3M0,7h2"/><path stroke="#ffd59b" d="M0,3h1M0,4h2M0,5h1"/><path stroke="#d89f75" d="M6,6h2M5,7h3"/></svg>
