<svg xmlns="http://www.w3.org/2000/svg" shape-rendering="crispEdges" viewBox="0 -0.5 8 8" width="8" height="8"><metadata>Generated with pixel-perfect-svg https://github.com/kagof/pixel-perfect-svg</metadata><path stroke="#ffbc4e" d="M3,0h1M1,2h1"/><path stroke="#f99b4e" d="M4,0h1M3,1h1M2,2h1M0,3h2"/><path stroke="#e98627" d="M4,1h2M2,3h1M0,4h2"/><path stroke="#e37840" d="M4,2h3M5,3h1M2,4h1M4,4h1M1,5h2"/><path stroke="#cd5e46" d="M6,3h1M4,5h1M2,6h2"/><path stroke="#bf5a3e" d="M7,3h1M6,4h1M5,5h1M4,6h1M3,7h1"/><path stroke="#b64d46" d="M7,4h1M6,5h1M5,6h1M4,7h1"/></svg>
