<svg xmlns="http://www.w3.org/2000/svg" shape-rendering="crispEdges" viewBox="0 -0.5 8 8" width="8" height="8"><metadata>Generated with pixel-perfect-svg https://github.com/kagof/pixel-perfect-svg</metadata><path stroke="#c6ecff" d="M1,1h1"/><path stroke="#88d6ff" d="M2,1h1M5,1h1"/><path stroke="#6dccff" d="M3,1h1M6,1h2M0,2h2M5,2h1"/><path stroke="#41b2e3" d="M7,2h1M1,3h1M3,3h1M5,3h1M0,4h2"/><path stroke="#24aed6" d="M7,3h1M3,4h1M5,4h1M1,5h2M5,5h1"/><path stroke="#318eb8" d="M7,4h1M3,5h1M6,5h2"/><path stroke="#366b8a" d="M1,6h3M5,6h3"/></svg>
