<svg xmlns="http://www.w3.org/2000/svg" shape-rendering="crispEdges" viewBox="0 -0.5 8 8" width="8" height="8"><metadata>Generated with pixel-perfect-svg https://github.com/kagof/pixel-perfect-svg</metadata><path stroke="#55b1f1" d="M1,0h1M0,1h1"/><path stroke="#4097ea" d="M3,0h1M1,1h3M0,2h2M0,3h1"/><path stroke="#1476c0" d="M5,0h1M7,0h1M4,1h4M3,2h2M6,2h2M1,3h1M3,3h2M6,3h2M0,4h7M0,5h1M2,5h1M4,5h1M0,6h2M3,6h1M1,7h3"/><path stroke="#bac7db" d="M2,2h1M5,2h1M2,6h1M4,6h1M6,6h1"/><path stroke="#ebf0f6" d="M2,3h1M5,3h1M1,5h1M3,5h1M5,5h1"/><path stroke="#105da2" d="M7,4h1M6,5h2M5,6h1M4,7h2"/><path stroke="#07487c" d="M7,6h1M6,7h1"/></svg>
