<svg xmlns="http://www.w3.org/2000/svg" shape-rendering="crispEdges" viewBox="0 -0.5 8 8" width="8" height="8"><metadata>Generated with pixel-perfect-svg https://github.com/kagof/pixel-perfect-svg</metadata><path stroke="#88d6ff" d="M1,0h3M0,1h1"/><path stroke="#6dccff" d="M4,0h3M3,1h2M0,2h1M0,3h1"/><path stroke="#ffe949" d="M1,1h1"/><path stroke="#ffbc4e" d="M2,1h1M1,2h1"/><path stroke="#55b1f1" d="M5,1h3M3,2h5M1,3h4M0,4h1"/><path stroke="#f99b4e" d="M2,2h1"/><path stroke="#4097ea" d="M5,3h1M7,3h1M1,4h1M3,4h2M0,5h1"/><path stroke="#55b67d" d="M6,3h1M5,4h3M4,5h2M3,6h2M1,7h3"/><path stroke="#91daa1" d="M2,4h1M1,5h3M0,6h3"/><path stroke="#00a087" d="M6,5h2M5,6h2M4,7h2"/><path stroke="#008279" d="M7,6h1M6,7h1"/></svg>
