<svg xmlns="http://www.w3.org/2000/svg" shape-rendering="crispEdges" viewBox="0 -0.5 8 8" width="8" height="8"><metadata>Generated with pixel-perfect-svg https://github.com/kagof/pixel-perfect-svg</metadata><path stroke="#fffaab" d="M1,0h1M0,1h1"/><path stroke="#fdf786" d="M2,0h4M1,1h2M0,2h2M0,3h1"/><path stroke="#fff02b" d="M6,0h1M3,1h5M2,2h6M1,3h6M0,4h1M4,4h1M0,5h2M3,5h1M0,6h1"/><path stroke="#ffcf05" d="M7,3h1M7,4h1M4,5h1M6,5h1M3,6h1M1,7h2"/><path stroke="#614a3c" d="M1,4h2M5,4h1"/><path stroke="#453125" d="M3,4h1M6,4h1M2,5h1M5,5h1M1,6h2M4,6h1"/><path stroke="#ffb108" d="M7,5h1M6,6h2M3,7h4"/><path stroke="#31222a" d="M5,6h1"/></svg>
