<svg xmlns="http://www.w3.org/2000/svg" shape-rendering="crispEdges" viewBox="0 -0.5 8 8" width="8" height="8"><metadata>Generated with pixel-perfect-svg https://github.com/kagof/pixel-perfect-svg</metadata><path stroke="#91daa1" d="M3,0h2M3,1h1"/><path stroke="#55b67d" d="M5,0h1M4,1h1M3,2h1"/><path stroke="#498960" d="M5,1h1M4,2h2"/><path stroke="#e45c5f" d="M1,4h2M1,5h1"/><path stroke="#b63c35" d="M3,4h1M2,5h1M1,6h1"/><path stroke="#7964ba" d="M5,4h2M5,5h1"/><path stroke="#584a7f" d="M7,4h1M6,5h1M5,6h1"/><path stroke="#82211d" d="M3,5h1M2,6h2"/><path stroke="#3c3151" d="M7,5h1M6,6h2"/></svg>
