<svg xmlns="http://www.w3.org/2000/svg" shape-rendering="crispEdges" viewBox="0 -0.5 8 8" width="8" height="8"><metadata>Generated with pixel-perfect-svg https://github.com/kagof/pixel-perfect-svg</metadata><path stroke="#ebf0f6" d="M2,0h1M1,1h1M0,2h1"/><path stroke="#cdd2da" d="M3,0h2M0,3h1"/><path stroke="#bac7db" d="M5,0h1M7,2h1M0,4h1M0,5h1M1,6h1M2,7h1"/><path stroke="#3d5083" d="M6,0h1M5,1h1M3,2h1M2,3h1"/><path stroke="#2d3d72" d="M6,1h2M4,2h1M3,3h1M5,3h1M2,4h3"/><path stroke="#28335d" d="M6,2h1M5,4h1M3,5h2"/><path stroke="#abaebe" d="M7,3h1M7,4h1M3,7h1"/><path stroke="#848795" d="M7,5h1M6,6h1M4,7h2"/></svg>
