<svg xmlns="http://www.w3.org/2000/svg" shape-rendering="crispEdges" viewBox="0 -0.5 8 8" width="8" height="8"><metadata>Generated with pixel-perfect-svg https://github.com/kagof/pixel-perfect-svg</metadata><path stroke="#ebf0f6" d="M4,0h2M3,1h1M3,2h1M2,4h1M1,5h1"/><path stroke="#bac7db" d="M6,0h1M7,1h1M7,2h1M3,3h1M3,4h1M2,5h1M0,6h2M0,7h1"/><path stroke="#c6ecff" d="M4,1h2M4,2h1"/><path stroke="#88d6ff" d="M6,1h1M5,2h2M4,3h2"/><path stroke="#24aed6" d="M6,3h1"/><path stroke="#abaebe" d="M7,3h1M4,4h3M3,5h1M2,6h1M1,7h1"/></svg>
