<svg xmlns="http://www.w3.org/2000/svg" shape-rendering="crispEdges" viewBox="0 -0.5 8 8" width="8" height="8"><metadata>Generated with pixel-perfect-svg https://github.com/kagof/pixel-perfect-svg</metadata><path stroke="#c6ecff" d="M0,1h1"/><path stroke="#6dccff" d="M3,1h1M6,1h1M0,2h2"/><path stroke="#41b2e3" d="M2,2h2M6,2h1"/><path stroke="#24aed6" d="M0,3h1M3,3h1M6,3h1M0,4h1M3,4h1M5,4h2"/><path stroke="#318eb8" d="M1,3h2M7,4h1M0,5h1M3,5h1M6,5h1"/><path stroke="#366b8a" d="M5,5h1M7,5h1M0,6h1M3,6h1M6,6h1"/></svg>
