<svg xmlns="http://www.w3.org/2000/svg" shape-rendering="crispEdges" viewBox="0 -0.5 8 8" width="8" height="8"><metadata>Generated with pixel-perfect-svg https://github.com/kagof/pixel-perfect-svg</metadata><path stroke="#bac7db" d="M5,0h1M2,3h1M1,4h1M0,5h1"/><path stroke="#abaebe" d="M6,0h1M7,1h1M5,2h1M4,3h1M3,4h1M2,5h1M0,6h1M1,7h1"/><path stroke="#ebf0f6" d="M4,1h1M3,2h1"/><path stroke="#848795" d="M7,2h1M4,5h1M3,6h1"/><path stroke="#73737f" d="M6,3h1M5,4h1M2,7h1"/><path stroke="#5b5c69" d="M7,3h1M7,4h1M6,5h1M5,6h1M4,7h1"/></svg>
