<svg xmlns="http://www.w3.org/2000/svg" shape-rendering="crispEdges" viewBox="0 -0.5 8 8" width="8" height="8"><metadata>Generated with pixel-perfect-svg https://github.com/kagof/pixel-perfect-svg</metadata><path stroke="#6dccff" d="M2,0h1"/><path stroke="#55b1f1" d="M3,0h1M2,1h1M1,2h1"/><path stroke="#4097ea" d="M4,0h1M0,2h1M0,3h1M0,4h1"/><path stroke="#1476c0" d="M5,0h1M3,1h3M2,2h4M1,3h5M1,4h1M0,5h1"/><path stroke="#fff02b" d="M6,2h2M6,3h2M2,4h6M2,5h3M2,6h3"/><path stroke="#105da2" d="M1,5h1"/><path stroke="#ffb108" d="M5,5h2M5,6h1M4,7h2"/><path stroke="#ffcf05" d="M7,5h1M2,7h2"/></svg>
