<svg xmlns="http://www.w3.org/2000/svg" shape-rendering="crispEdges" viewBox="0 -0.5 8 8" width="8" height="8"><metadata>Generated with pixel-perfect-svg https://github.com/kagof/pixel-perfect-svg</metadata><path stroke="#f85d80" d="M1,1h1M3,1h2M0,2h1M3,2h1M2,3h1"/><path stroke="#ff7daf" d="M2,1h1M1,2h1"/><path stroke="#d94a69" d="M5,1h2M4,2h4M0,3h2M3,3h2M1,4h3M2,5h1"/><path stroke="#ffcdff" d="M2,2h1"/><path stroke="#9f3b52" d="M5,3h3M4,4h2M3,5h2M3,6h1"/><path stroke="#712b3b" d="M6,4h1M5,5h1M4,6h1M3,7h1"/></svg>
