<svg xmlns="http://www.w3.org/2000/svg" shape-rendering="crispEdges" viewBox="0 -0.5 8 8" width="8" height="8"><metadata>Generated with pixel-perfect-svg https://github.com/kagof/pixel-perfect-svg</metadata><path stroke="#ecc581" d="M5,0h1M4,1h1M4,2h1"/><path stroke="#6dccff" d="M6,0h1"/><path stroke="#41b2e3" d="M7,0h1M5,1h1"/><path stroke="#24aed6" d="M6,1h1"/><path stroke="#318eb8" d="M7,1h1M6,2h1"/><path stroke="#d89f75" d="M5,2h1M4,3h1"/><path stroke="#c7826c" d="M7,2h1M5,3h2"/><path stroke="#bf7e63" d="M3,3h1M2,4h1M1,5h1"/><path stroke="#a96d58" d="M3,4h1M2,5h1M0,6h2M0,7h1"/><path stroke="#945d4f" d="M4,4h1M3,5h1M2,6h1M1,7h1"/></svg>
