<svg xmlns="http://www.w3.org/2000/svg" shape-rendering="crispEdges" viewBox="0 -0.5 8 8" width="8" height="8"><metadata>Generated with pixel-perfect-svg https://github.com/kagof/pixel-perfect-svg</metadata><path stroke="#e0faeb" d="M0,0h1"/><path stroke="#a9d1c1" d="M1,0h1M1,1h1"/><path stroke="#91daa1" d="M3,0h1M2,1h1M0,2h1"/><path stroke="#55b67d" d="M4,0h1M6,0h2M3,1h1M1,2h1M3,2h2M6,2h1M0,4h2M3,4h1"/><path stroke="#498960" d="M7,2h1M4,4h1M0,6h1M6,6h1"/><path stroke="#417455" d="M6,4h1M1,6h1M3,6h1"/><path stroke="#325c40" d="M7,4h1M4,6h1M7,6h1"/></svg>
