<svg xmlns="http://www.w3.org/2000/svg" shape-rendering="crispEdges" viewBox="0 -0.5 8 8" width="8" height="8"><metadata>Generated with pixel-perfect-svg https://github.com/kagof/pixel-perfect-svg</metadata><path stroke="#55b1f1" d="M1,0h1M0,1h1"/><path stroke="#4097ea" d="M2,0h4M1,1h2M0,2h2M0,3h1"/><path stroke="#1476c0" d="M6,0h1M3,1h5M2,2h6M1,3h6M0,4h1M4,4h1M0,5h2M3,5h1M0,6h2"/><path stroke="#105da2" d="M7,3h1M7,4h1M4,5h1M6,5h1M3,6h1M1,7h2"/><path stroke="#23324d" d="M1,4h3M5,4h1M2,5h1"/><path stroke="#001b40" d="M6,4h1M5,5h1M2,6h1M4,6h1"/><path stroke="#07487c" d="M7,5h1M6,6h2M3,7h4"/><path stroke="#181f2f" d="M5,6h1"/></svg>
