<svg xmlns="http://www.w3.org/2000/svg" shape-rendering="crispEdges" viewBox="0 -0.5 8 8" width="8" height="8"><metadata>Generated with pixel-perfect-svg https://github.com/kagof/pixel-perfect-svg</metadata><path stroke="#c6ecff" d="M0,0h2M0,1h1"/><path stroke="#88d6ff" d="M2,0h1M1,1h2M0,2h2"/><path stroke="#91daa1" d="M5,0h2M5,1h1"/><path stroke="#00bfa3" d="M7,0h1M6,1h2M5,2h2"/><path stroke="#24aed6" d="M2,2h1"/><path stroke="#00a087" d="M7,2h1"/><path stroke="#48474d" d="M1,3h1M6,3h1M6,4h1"/><path stroke="#222323" d="M1,4h1M3,6h1"/><path stroke="#ffa6c5" d="M0,5h2M0,6h1"/><path stroke="#e45c5f" d="M2,5h1M1,6h2M0,7h2"/><path stroke="#000000" d="M5,5h1M4,6h1"/><path stroke="#b63c35" d="M2,7h1"/></svg>
