<svg xmlns="http://www.w3.org/2000/svg" shape-rendering="crispEdges" viewBox="0 -0.5 8 8" width="8" height="8"><metadata>Generated with pixel-perfect-svg https://github.com/kagof/pixel-perfect-svg</metadata><path stroke="#fffaab" d="M0,0h1"/><path stroke="#fff64f" d="M2,0h1M1,1h1M1,4h1"/><path stroke="#ff7676" d="M5,0h1M4,1h1"/><path stroke="#e45c5f" d="M5,1h2M4,2h1"/><path stroke="#fff02b" d="M1,2h1M2,4h1M5,4h1M1,5h1"/><path stroke="#b63c35" d="M6,2h1"/><path stroke="#ffe949" d="M3,4h1M2,5h1"/><path stroke="#e8d24b" d="M3,5h1M5,5h1M1,6h1M5,6h1"/><path stroke="#d1aa39" d="M3,6h1M6,6h2"/></svg>
